<svg xmlns="http://www.w3.org/2000/svg" width="74.39" height="18.17" viewBox="0 0 74.39 18.17"><title>scroll</title><g id="Layer_2" data-name="Layer 2"><g id="Layer_1-2" data-name="Layer 1"><path d="M2.85,12.9A2.94,2.94,0,0,0,5.68,15a2.22,2.22,0,0,0,2.45-2.3c0-2.32-5.7-3.28-5.7-7.47A5.24,5.24,0,0,1,7.92,0C10.8,0,12.62,1.59,13,3.81L9.92,5.5a2.24,2.24,0,0,0-2.3-2.35A1.78,1.78,0,0,0,5.8,5c0,2.4,5.7,3.21,5.7,7.32,0,3.81-2.88,5.86-6.18,5.86C2.6,18.17.43,16.66,0,14.59Z"/><path d="M24.3,14.61a6.23,6.23,0,0,1-5.48,3.56c-3.43,0-4.9-2.57-4.9-5.73C13.93,7.65,15.77,0,21.5,0c2.8,0,4.29,1.74,4.74,4.11L23.09,5.8c-.05-1.59-.56-2.65-1.87-2.65-2.65,0-4,6-4,9,0,1.69.5,2.85,1.87,2.85,1.11,0,2-1,2.62-2.47Z"/><path d="M33.56,17.92l-1.19-5.43H30.46l-1.14,5.43H26L29.72.25h4.44a4.88,4.88,0,0,1,5,5.1,7.18,7.18,0,0,1-3.74,6.39l1.44,6.18ZM32.38,9.34a3.4,3.4,0,0,0,3.48-3.66,2.07,2.07,0,0,0-2.25-2.3H32.4l-1.26,6Z"/><path d="M40.83,12.44C40.83,7.65,42.67,0,48.4,0c3.43,0,4.9,2.6,4.9,5.75,0,4.82-1.87,12.42-7.57,12.42C42.29,18.17,40.83,15.6,40.83,12.44ZM50,6c0-1.69-.5-2.85-1.87-2.85-2.65,0-4,6-4,9,0,1.69.5,2.85,1.87,2.85C48.65,15,50,9,50,6Z"/><path d="M54.35,17.92,58.09.25h3.36L58.36,14.76h5.07l-.66,3.15Z"/><path d="M65.3,17.92,69,.25h3.36L69.31,14.76h5.07l-.66,3.15Z"/></g></g></svg>